<svg xmlns="http://www.w3.org/2000/svg" viewBox="0 0 1517.04 399.47"><defs><style>.cls-1{fill:#ffc129;}.cls-2{fill:#4195d4;}</style></defs><g id="Layer_2" data-name="Layer 2"><g id="Layer_1-2" data-name="Layer 1"><path class="cls-1" d="M0,302.05V0H133.58a87.53,87.53,0,0,1,38.5,8.51,97.89,97.89,0,0,1,30.63,23,106.38,106.38,0,0,1,20,32.33,99.29,99.29,0,0,1,7,36.59,104.25,104.25,0,0,1-6.6,36.8A91.55,91.55,0,0,1,204.2,168a86.5,86.5,0,0,1-28.93,20.42l68.92,113.59H179.53L117.42,200.8H58.71V302.05ZM58.71,149.32h73.6a31.06,31.06,0,0,0,19.57-6.59,46.44,46.44,0,0,0,13.61-17.66,58.19,58.19,0,0,0,5.1-24.67q0-14.46-6-25.31a49.81,49.81,0,0,0-15.1-17.23,33.9,33.9,0,0,0-19.79-6.38h-71Z"/><path class="cls-1" d="M373.1,306.3q-26.81,0-48.5-9a109.59,109.59,0,0,1-37-24.82A112,112,0,0,1,264,236.26a113.41,113.41,0,0,1-8.3-43.12q0-31.54,14.25-57.64a108.68,108.68,0,0,1,40.84-41.87q26.58-15.76,62.75-15.78,36.59,0,62.54,15.8a107.54,107.54,0,0,1,39.78,41.72,116.9,116.9,0,0,1,13.82,55.83q0,5.06-.42,10.32t-.85,8.64H316.09a63.17,63.17,0,0,0,10,29.09,54,54,0,0,0,21.27,18.92,61.83,61.83,0,0,0,27.86,6.44,65.73,65.73,0,0,0,32.12-8.29Q422.45,248,428,234.41L476.9,248a92.69,92.69,0,0,1-23.19,30.21,111.41,111.41,0,0,1-35.52,20.63Q397.78,306.3,373.1,306.3ZM314.81,174H431.38q-1.71-16.63-9.57-28.9A55.24,55.24,0,0,0,401.17,126a59.13,59.13,0,0,0-28.5-6.86A57,57,0,0,0,344.81,126a55.61,55.61,0,0,0-20.42,19.12Q316.5,157.37,314.81,174Z"/><path class="cls-1" d="M658.13,306.3q-25.95,0-45.73-11.56a82.18,82.18,0,0,1-30.85-31.35V392.66h-57V81.26h49.77V119.5A94.21,94.21,0,0,1,606.65,89q19.56-11.16,44.67-11.16a96.87,96.87,0,0,1,41.48,8.84,100.74,100.74,0,0,1,33,24.61,117.63,117.63,0,0,1,21.91,36.18,121.35,121.35,0,0,1,7.87,44q0,32-12.55,58.06T708.54,291Q686.63,306.31,658.13,306.3ZM639,257.8a51.66,51.66,0,0,0,23.83-5.42,58.87,58.87,0,0,0,18.5-14.81,65.78,65.78,0,0,0,11.92-21.28,76.8,76.8,0,0,0,4-24.84A70.73,70.73,0,0,0,692.8,166,62,62,0,0,0,660,131.36a59.72,59.72,0,0,0-24.46-5,52.71,52.71,0,0,0-16.38,2.7,67,67,0,0,0-16,7.67,63.07,63.07,0,0,0-13.4,11.61,41.61,41.61,0,0,0-8.3,14.51v51.75a81.59,81.59,0,0,0,13.83,22,63.88,63.88,0,0,0,20.21,15.59A52.72,52.72,0,0,0,639,257.8Z"/><path class="cls-1" d="M897.21,306.3q-27.23,0-48.92-9a105.83,105.83,0,0,1-36.8-25,112.55,112.55,0,0,1-23.19-36.6,121.35,121.35,0,0,1,0-87.08,112.7,112.7,0,0,1,23.19-36.61,106,106,0,0,1,36.8-25q21.69-9,48.92-9.05t48.71,9.05a108.12,108.12,0,0,1,60,61.64,124.22,124.22,0,0,1,0,87.08,109.69,109.69,0,0,1-23,36.6,105.93,105.93,0,0,1-36.8,25Q924.44,306.31,897.21,306.3Zm-58.28-114q0,19.22,7.65,34a58.58,58.58,0,0,0,20.85,23.16,54.46,54.46,0,0,0,29.78,8.34,52.82,52.82,0,0,0,29.35-8.55,61.78,61.78,0,0,0,21.06-23.37q7.88-14.81,7.87-34,0-18.78-7.87-33.81a59.81,59.81,0,0,0-21.06-23.36,55.92,55.92,0,0,0-59.13.21,60.16,60.16,0,0,0-20.85,23.37Q838.93,173.09,838.93,192.28Z"/><path class="cls-2" d="M1053.77,302.05V0h128a86.25,86.25,0,0,1,38.29,8.51,98.73,98.73,0,0,1,30.41,23,110,110,0,0,1,20.21,32.33A96.76,96.76,0,0,1,1278,100.4a104,104,0,0,1-11.91,48.5,101.8,101.8,0,0,1-32.76,37.43q-20.83,14.47-49.35,14.47h-71.47V302.05Zm58.7-152.73h68.07a32.63,32.63,0,0,0,19.15-5.95q8.5-6,13.61-17.23a61.82,61.82,0,0,0,5.1-25.74q0-15.74-5.74-26.8T1197.77,57A37.55,37.55,0,0,0,1178,51.48h-65.52Z"/><path class="cls-2" d="M1318.8,345.44q7.65,1.69,14.25,3a60.79,60.79,0,0,0,11.27,1.28c5.39,0,9.85-1.35,13.4-4s7-7.44,10.43-14.28,6.94-16.43,10.63-28.73L1290.72,81.26h59.13l60,163.52,52.75-163.52H1517l-93.59,265.36a81,81,0,0,1-15.53,26.83,73.87,73.87,0,0,1-26,19,83.53,83.53,0,0,1-34.67,7,89,89,0,0,1-13.61-1.06,102.39,102.39,0,0,1-14.89-3.62Z"/></g></g></svg>